<svg xmlns="http://www.w3.org/2000/svg" version="1.1" xmlns:xlink="http://www.w3.org/1999/xlink" xmlns:svgjs="http://svgjs.com/svgjs" width="512" height="512" x="0" y="0" viewBox="0 0 512 512" style="enable-background:new 0 0 512 512" xml:space="preserve" class=""><g><path d="m283.466 166.732-.002-.049-.001-.021.003.07z" fill="#ffffff" data-original="#000000" class="" opacity="1"></path><path d="M511.651 469.912 498.8 355.09c-4.43-39.061-3.909-49.634-12.787-62.992-16.146-24.3-42.222-24.019-81.672-35.018v-2.311h44.97c10.7 0 19.422-8.638 19.554-19.309l5.926-100.42a7.5 7.5 0 0 0-7.045-7.928c-4.148-.253-7.685 2.909-7.928 7.044-6.182 104.851-5.949 100.614-5.949 101.056 0 2.471-2.088 4.558-4.558 4.558h-44.97v-1.941c22.258-12.026 39.126-32.294 44.277-58.655 1.953-9.439 1.456-16.49 1.507-32.594a15.476 15.476 0 0 0-14.781-15.477c-51.275-2.396-79.427-30.057-89.151-41.839a14.425 14.425 0 0 0-10.658-5.233 14.346 14.346 0 0 0-10.967 4.537c-9.802 10.433-20.48 14.446-27.712 15.976-7.8 1.649-13.461 8.605-13.461 16.541.028 44.305-.061 42.174.069 45.596.496 12.533 3.961 25.216 8.835 34.231 10.171 20.178 23.626 28.874 36.587 36.773v2.091c-.717-.011-23.447-.003-43.921-.006-2.471 0-4.557-2.087-4.557-4.558 0-.44.251 4.106-6.041-102.599a9.54 9.54 0 0 0-.036-.412c-.089-.779-8.372-78.029 35-87.562 2.183-.48 4.012-1.859 5.033-3.847.762-1.428 19.321-34.821 78.376-23.322.215.042.67.19 1.071.321 40.405 13.192 63.305 45.754 65.852 82.335a7.488 7.488 0 0 0 8.002 6.959 7.499 7.499 0 0 0 6.959-8.002c-2.967-42.63-30.964-80.583-74.112-94.889-2.152-.706-3.628-1.195-4.906-1.444-46.489-9.052-78.073 6.563-92.653 28.036-22.127 6.284-36.623 26.014-42.014 57.297-3.853 22.354-1.804 43.1-1.532 45.608l6.006 101.769c.132 10.669 8.852 19.309 19.553 19.309 9.791-.001 43.244.005 43.921-.006v2.317c-47.944 11.935-59.084 12.863-72.946 25.059-15.142-13.297-28.592-13.403-54.682-20.518l-18.236-8.729v-15.221c27.695-14.335 45.457-42.566 45.457-74.257v-.074c20.51-4.469 30.042-25.249 18.891-40.879.201-32.336-.254-32.315-3.67-47.347-17.247-62.597-76.9-72.687-77.001-72.742C104.209-11.066 45.538 35.351 42.954 97.918c-.004.139-.102 2.236-.102 4.42.001 4.367-.002 19.711.003 20.12-2.987 4.185-4.72 9.125-4.72 14.415 0 12.772 10.069 23.516 23.613 26.465.178.691-2.93 48.469 45.265 74.235l.552-1.12v.233l-.445.94.445.219-.001 14.871-18.987 9.088c-30.008 7.471-41.335 8.656-54.943 21.225-10.784 9.988-14.672 20.953-16.362 34.843C-.427 477.954-.087 468.742.022 476.153c-.227 19.146 13.138 35.804 35.244 35.804H95.82c4.142 0 7.499-3.356 7.499-7.499s-3.356-7.499-7.499-7.499H72.644l7.435-140.646a7.499 7.499 0 0 0-7.093-7.884c-4.121-.246-7.666 2.956-7.884 7.093l-1.564 29.582-38.25-4.013.412-3.684c7.687-67.322 4.948-73.213 22.252-86.727 9.08-7.105 23.771-8.748 40.713-13.441l23.053 29.511c5.517 7.058 15.987 7.682 22.301 1.32l3.595-3.623v36.288c0 4.142 3.356 7.499 7.499 7.499s7.499-3.356 7.499-7.499v-36.288c2.021 1.527 6.102 8.534 15.041 7.998a14.891 14.891 0 0 0 10.854-5.696l23.083-29.547c20.061 5.553 32.842 5.923 44.603 16.46-9.131 14.941-6.944 25.608-15.071 90.978l-3.769.396-1.561-29.513c-.219-4.136-3.753-7.34-7.884-7.093a7.499 7.499 0 0 0-7.093 7.884l7.248 140.646h-87.25c-4.142 0-7.499 3.356-7.499 7.499s3.356 7.499 7.499 7.499h187.395c4.142 0 7.499-3.356 7.499-7.499s-3.356-7.499-7.499-7.499h-24.252l7.436-140.646a7.499 7.499 0 0 0-7.093-7.884c-4.112-.246-7.666 2.956-7.884 7.093l-1.563 29.563-38.241-4.012c7.334-65.292 6.467-72.845 15.053-83.36 11.187-13.337 27.477-14.955 29.594-15.81 1.174 24.126 8.205 49.387 32.377 49.387 16.6 0 34.144-13.122 42.963-20.77 39.365 34.145 72.617 27.411 75.341-28.624 2.104.688 10.478 1.769 19.381 7.103 10.83 6.505 15.944 15.006 17.915 27.074.733 4.683.124.576 7.382 65.002l-37.95 3.982-1.561-29.532c-.219-4.137-3.794-7.337-7.884-7.093a7.499 7.499 0 0 0-7.093 7.884l7.435 140.646h-86.363c-4.142 0-7.499 3.356-7.499 7.499s3.356 7.499 7.499 7.499h123.44c23.743-.003 37.793-19.084 35.01-42.049zm-449.365-69.86-4.868 96.907c-17.741-.957-28.606 2.752-36.556-5.306-5.241-5.312-6.315-12.707-5.689-20.174l8.448-75.484 38.665 4.057zm166.193-252.369v-21.621c11.454 4.725 11.454 16.895 0 21.621zm-166.731.001c-11.458-4.724-11.461-16.899 0-21.624v21.624zm7.101-38.433-.622.373a34.699 34.699 0 0 0-10.379 1.881c.829-5.091-4.947-36.76 22.08-67.176 9.938-10.871 21.403-19.026 35.853-24.198.239-.009 54.099-21.696 96.206 26.152 25.171 29.998 19.64 61.835 20.388 65.223a34.685 34.685 0 0 0-10.376-1.881c-7.247-4.155-10.709-11.842-11.007-20.277-.063-.262.339-8.111-6.558-13.866-8.409-7.018-15.737-3.488-31.016-1.973-40.293 3.903-68.596-1.743-73.001-2.082-10.458-1.627-20.839 5.919-21.183 17.929-.547 14.951-10.436 19.93-10.385 19.895zm7.896 47.394v-34.642c5.099-4.035 10.763-7.356 14.991-18.725 1.615-4.416 2.372-9.203 2.512-13.924.049-1.946 1.873-3.419 3.863-3.107 19.746 2.583 32.727 3.885 50.382 3.677l1.118-.019c60.434-.917 39.777-13.249 48.664 12.776 3.429 10.127 10.348 15.714 9.773 15.168 2.824 2.628 5.254 4.026 5.429 4.152l.003 41.41c0 35.515-27.247 65.614-63.793 68.196-20.4 1.35-34.567-6.828-35.839-7.384l-.818 1.65-.098.027.825-1.722c-1.008-.579-2.488-1.23-5.7-3.315-35.937-23.209-30.906-62.243-31.312-64.218zm46.716 140.773-20.19-25.845 10.157-4.861 20.941 19.717-10.908 10.989zm21.652-21.474-22.55-21.23v-11.04c14.668 4.107 30.274 4.174 45.28-.051v10.921l-22.73 21.4zm21.652 21.474-10.907-10.991 21.062-19.831 10.133 4.851-20.288 25.971zm117.023 102.634-4.868 96.907c-23.785-.025-24.472.203-28.091-.634-9.209-2.126-14.294-10.213-14.486-19.664-.034-7.262-.279.73 8.602-80.685l38.843 4.076zm25.639-199.382c-6.391-10.636-11.034-21.266-11.034-37.259v-42.326c0-.905.644-1.674 1.566-1.869 9.22-1.95 22.742-6.988 35.087-19.901 11.368 13.59 43.043 44.126 99.599 46.769a.501.501 0 0 1 .483.497c-.019 15.018.83 24.241-2.902 36.613-9.269 30.753-36.343 42.081-34.203 41.032l-.655.323c-3.306 1.666-2.09.881-3.55 1.525-13.301 5.933-26.74 5.654-27.17 5.699-.363-.103-35.869 1.7-57.221-31.103zm88.509 70.269-.02-.005a.117.117 0 0 1 .02.005zm-79.076 44.473c-7.652-3.183-12.115-16.311-12.74-37.21l3.395-.845c9.799 14.023 23.684 23.806 39.369 28.005-9.965 7.106-22.238 13.288-30.024 10.05zm6.806-42.077c9.958-2.519 9.932-2.379 11.013-2.869 4.376-1.981 7.205-7.027 7.205-12.853V243.58c13.876 4.008 29.313 4.447 45.46.083v13.949c0 7.111 4.13 12.208 8.488 13.3l.147.037 9.559 2.38c-22.028 25.743-59.86 25.759-81.872.006zm88.681 42.073c-8.719 3.64-22.438-4.562-30.115-10.104 16.324-4.425 29.937-14.737 39.19-28.019l3.656.91c-.622 20.893-5.082 34.023-12.731 37.213zm76.698 176.245c-7.951 8.058-18.756 4.347-36.463 5.306l-5.123-96.909 38.826-4.073c9.139 83.195 8.451 72.244 8.604 80.363.052 4.496-1.456 10.866-5.844 15.313z" fill="#ffffff" data-original="#000000" class="" opacity="1"></path></g></svg>