<svg xmlns="http://www.w3.org/2000/svg" version="1.1" xmlns:xlink="http://www.w3.org/1999/xlink" xmlns:svgjs="http://svgjs.com/svgjs" width="512" height="512" x="0" y="0" viewBox="0 0 511.999 511.999" style="enable-background:new 0 0 512 512" xml:space="preserve" class=""><g><path d="M399.512 394.859v-23.003c7.932.566 10.878 4.192 13.597 4.192 3.4 0 4.986-4.306 4.986-6.458 0-5.552-10.878-7.933-18.584-8.159v-3.06c0-1.359-1.7-2.606-3.4-2.606-1.926 0-3.286 1.247-3.286 2.606v3.286c-10.765 1.134-21.53 6.799-21.53 21.077 0 14.504 11.331 18.584 21.53 22.21v26.63c-11.558-.907-14.618-8.839-18.357-8.839-2.833 0-5.213 3.739-5.213 6.458 0 5.553 9.518 13.145 23.57 13.372v3.513c0 1.36 1.36 2.606 3.286 2.606 1.7 0 3.4-1.246 3.4-2.606v-3.853c12.237-1.7 20.623-9.406 20.623-23.343.001-15.411-10.764-20.396-20.622-24.023zm-6.007-2.153c-6.005-2.266-10.878-4.645-10.878-11.105 0-5.892 4.533-8.726 10.878-9.518v20.623zm5.326 38.641v-23.91c5.552 2.38 9.972 5.553 9.972 12.692 0 6.458-3.852 10.085-9.972 11.218z" fill="#ffffff" data-original="#000000" opacity="1"></path><path d="M493.772 355.036c-12.044-20.516-31.347-41.505-60.409-65.623.308-.444.61-.893.884-1.367a19.557 19.557 0 0 0 1.827-15.237c-2.027-6.897-7.6-11.848-14.189-13.412 2.891-8.17 7.42-16.05 11.288-20.983 3.446-4.396 4.03-10.232 1.522-15.231-2.515-5.016-7.591-8.021-13.165-7.913l-61.068 1.456c-5.605.135-10.499 3.404-12.772 8.534-2.266 5.113-1.405 10.914 2.247 15.14 4.097 4.743 8.995 12.396 12.272 20.417-6.517 1.871-11.86 7.084-13.558 14.077a19.557 19.557 0 0 0 2.552 15.135c.299.464.625.903.957 1.335a516.033 516.033 0 0 0-8.644 8.08c-.934-6.54-3.388-12.79-7.309-17.919-8.757-11.453-28.947-19.953-46.76-27.452a747.046 747.046 0 0 1-9.188-3.917c15.447-14.873 24.515-34.994 25.382-56.559 12.918-1.741 22.913-12.831 22.913-26.219v-14.67c0-9.602-5.141-18.024-12.814-22.663 6.447-3.508 10.832-10.344 10.832-18.185 0-9.832-6.903-18.07-16.112-20.159-2.514-7.783-6.08-15.945-10.483-23.897a7.44 7.44 0 0 0-10.106-2.902 7.437 7.437 0 0 0-2.902 10.106c2.984 5.387 5.537 10.854 7.563 16.166H110.666c11.879-31.253 43.717-72.803 91.899-74.116 30.251.798 52.068 17.434 65.047 31.259a7.432 7.432 0 0 0 10.508.332 7.433 7.433 0 0 0 .332-10.508C257.028 15.32 230.869 2.887 202.804 2.189a8.71 8.71 0 0 0-.484.004l-.014.001c-27.508.708-53.245 12.727-74.432 34.764-14.867 15.464-27.01 35.635-33.167 54.839-9.021 2.226-15.739 10.365-15.739 20.063 0 7.841 4.385 14.677 10.831 18.184-7.673 4.639-12.814 13.061-12.814 22.663v14.67c0 13.361 9.955 24.434 22.836 26.209l.005 4.981c.024 20.107 9.028 38.857 24.704 51.443l.382.306a786.91 786.91 0 0 1-8.821 3.756c-17.813 7.499-38.004 15.999-46.76 27.452-8.589 11.234-10.136 27.827-4.053 41.098a7.12 7.12 0 0 0-.696.167c-18.788 5.531-34.918 16.745-46.65 32.428C6.2 370.9 0 389.542 0 409.128v4.684a7.434 7.434 0 0 0 7.434 7.434 7.434 7.434 0 0 0 7.434-7.434v-4.684c0-16.349 5.177-31.912 14.969-45.004 9.719-12.991 23.055-22.309 38.585-26.965l8.084-1.501c5.796 4.36 13.728 8.789 24.086 13.468a248.068 248.068 0 0 0 102.174 22.002 248.208 248.208 0 0 0 96.947-19.723c-1.712 2.81-3.295 5.6-4.751 8.375-10.966 20.905-15.571 42.188-14.931 69.007.531 22.291 10.087 43.022 26.906 58.373a87.36 87.36 0 0 0 9.699 7.665H72.655v-63.142c0-4.106-3.328-7.434-7.434-7.434s-7.434 3.328-7.434 7.434v63.142H18.342a3.476 3.476 0 0 1-3.473-3.472v-42.702a7.434 7.434 0 0 0-14.869 0v42.702c0 10.113 8.228 18.341 18.342 18.341h342.602c1.47.074 2.945.119 4.426.119.701 0 1.406-.009 2.109-.025l61.011-1.455c22.465-.535 43.558-9.587 59.392-25.487 16.07-16.135 24.626-37.298 24.094-59.589-.639-26.822-6.254-47.861-18.204-68.221zm-71.963-78.034a4.56 4.56 0 0 1-.433 3.6 4.47 4.47 0 0 1-2.201 1.914c-.027.01-.054.015-.081.025-.06.023-.111.039-.165.058-.116.038-.228.079-.353.109l-.006.002-.009.003c-17.388 4.182-34.381 4.587-51.949 1.239l-.011-.002c-.122-.024-.232-.058-.346-.09a4.353 4.353 0 0 1-.169-.051c-.031-.01-.064-.014-.095-.024a4.461 4.461 0 0 1-2.289-1.807 4.562 4.562 0 0 1-.604-3.577 4.565 4.565 0 0 1 5.243-3.407c.894.161 1.785.308 2.676.449l.068.011c14.356 2.267 28.34 1.935 42.574-1.01.091-.019.183-.037.273-.059.825-.173 1.649-.348 2.476-.538a4.568 4.568 0 0 1 5.401 3.155zm-59.873-45.439 58.828-1.403c-5.292 7.013-11.737 18.46-14.85 30.599-9.293 1.513-18.333 1.73-27.686.664-3.687-11.977-10.671-23.106-16.292-29.86zm-48.251-64.186c-.001 5.124-3.342 9.481-7.958 11.011l.022-29.409c.001-.058.009-.113.009-.171 0-.056-.007-.111-.008-.166l.005-6.936c4.604 1.538 7.93 5.888 7.93 11.002v14.669zm-221.831 0v-14.67c0-5.114 3.327-9.464 7.931-11.002l.005 6.926c-.001.06-.009.117-.009.177 0 .061.008.121.009.182l.02 29.398c-4.617-1.531-7.956-5.887-7.956-11.011zm7.799-49.699a5.824 5.824 0 0 1-5.817-5.818 5.825 5.825 0 0 1 5.817-5.818l205.113.003c.015 0 .03-.003.044-.003h1.074c3.208 0 5.818 2.61 5.818 5.818s-2.61 5.818-5.818 5.818H99.653zm14.998 21.165-.004-6.297h176.244l-.001 1.126-.005 7.701H114.653l-.002-2.53zm149.602 21.728v11.018a5.84 5.84 0 0 1-5.833 5.833h-30.363a5.84 5.84 0 0 1-5.833-5.833v-11.018h42.029zm-80.964 0v11.018a5.84 5.84 0 0 1-5.833 5.833h-30.364a5.84 5.84 0 0 1-5.833-5.833v-11.018h42.03zm-68.605 25.832v-.001l-.021-30.159h11.727v15.347c0 11.415 9.287 20.702 20.702 20.702h30.364c11.415 0 20.702-9.287 20.702-20.702v-15.347h9.198v15.347c0 11.415 9.287 20.702 20.702 20.702h30.363c11.415 0 20.702-9.287 20.702-20.702v-15.347h11.753c-.008 11.864-.017 23.332-.023 29.661l-.005 4.404c0 .194-.015.385-.017.579l-41.066 6.252a330.14 330.14 0 0 1-103.172-.576l-31.903-5.222c-.003-1.499-.005-3.153-.006-4.938zm.649 20.11 28.856 4.724a345.229 345.229 0 0 0 55.806 4.545c17.37 0 34.743-1.315 52.007-3.943l36.952-5.626c-3.489 14.603-11.703 27.734-23.706 37.373l-3.193 2.564-.079.063-34.441 27.658a17.246 17.246 0 0 1-10.763 3.787h-28.006a17.253 17.253 0 0 1-10.764-3.787L143.56 246.22l-.087-.07-9.633-7.734c-10.049-8.067-16.546-19.408-18.507-31.903zm131.843 105.532a30.882 30.882 0 0 0 4.823 5.507c-14.14 10.63-31.284 16.39-49.229 16.39s-35.09-5.761-49.229-16.39a30.882 30.882 0 0 0 4.823-5.507c3.754-5.451 5.907-12.163 5.907-18.415v-11.717l4.424 3.552a32.178 32.178 0 0 0 20.072 7.061h28.006a32.166 32.166 0 0 0 20.073-7.062l4.425-3.553v11.72c-.002 6.251 2.151 12.964 5.905 18.414zm51.645 23.532c-61.045 27.576-131.066 27.578-192.106-.001-21.169-9.564-26.182-15.744-27.355-17.958-4.484-8.464-3.734-19.846 1.783-27.061 6.357-8.314 25.409-16.335 40.718-22.78 5.764-2.427 11.286-4.752 16.048-7.026l11.491 9.225v23.653c0 6.789-5.021 14.217-10.331 15.285a7.436 7.436 0 0 0-3.704 12.631c18.177 17.582 42.115 27.265 67.403 27.265 25.288 0 49.226-9.683 67.403-27.265a7.433 7.433 0 0 0-3.704-12.631c-5.31-1.068-10.331-8.496-10.331-15.285v-23.66l11.484-9.222c4.764 2.276 10.289 4.602 16.055 7.03 15.309 6.445 34.361 14.465 40.718 22.78 5.27 6.892 6.178 17.58 2.343 25.901-1.087 2.531-3.287 4.545-6.349 7.089-4.01 3.054-10.628 7.089-21.566 12.03zm178.527 136.776c-13.118 13.172-30.595 20.672-49.212 21.115l-61.011 1.455a72.942 72.942 0 0 1-4.976-.067 7.312 7.312 0 0 0-.613-.031h-.047c-16.553-.874-32.189-7.385-44.527-18.646-13.796-12.592-21.632-29.547-22.065-47.745-.76-31.855 5.571-58.761 35.879-94.139 4.355-5.546 8.237-9.193 8.237-9.193 7.662-8.198 16.58-16.871 26.934-26.165 8.042 1.413 15.985 2.129 23.9 2.129 10.028 0 20.017-1.151 30.111-3.426 63.475 51.725 76.162 84.338 77.154 125.972.435 18.197-6.585 35.508-19.764 48.741z" fill="#ffffff" data-original="#000000" opacity="1"></path></g></svg>