<svg xmlns="http://www.w3.org/2000/svg" version="1.1" xmlns:xlink="http://www.w3.org/1999/xlink" xmlns:svgjs="http://svgjs.com/svgjs" width="512" height="512" x="0" y="0" viewBox="0 0 64 64" style="enable-background:new 0 0 512 512" xml:space="preserve" class=""><g><path d="M32 21c5.514 0 10-4.486 10-10S37.514 1 32 1 22 5.486 22 11s4.486 10 10 10zm0-18c4.411 0 8 3.589 8 8s-3.589 8-8 8-8-3.589-8-8 3.589-8 8-8zM38 22H26c-8.271 0-15 6.729-15 15v10c0 3.309 2.691 6 6 6h.408l-.285.519a.997.997 0 0 0 .017.99A.998.998 0 0 0 18 55h3v7a1 1 0 0 0 1 1h20a1 1 0 0 0 1-1v-8h-2v7H23v-6h14a1 1 0 0 0 1-1v-1h2c1.654 0 3-1.346 3-3v-3a1 1 0 0 0-1-1h-1v-1a1 1 0 0 0-1-1h-2V24c7.168 0 13 5.832 13 13v24h-5V37.5c0-1.378-1.122-2.5-2.5-2.5S41 36.122 41 37.5V44h2v-6.5a.5.5 0 0 1 1 0V62a1 1 0 0 0 1 1h7a1 1 0 0 0 1-1V37c0-8.271-6.729-15-15-15zM17 51c-2.206 0-4-1.794-4-4V37c0-7.168 5.832-13 13-13h7.311L23 42.802V37.5c0-1.378-1.122-2.5-2.5-2.5S18 36.122 18 37.5V45a1 1 0 0 0 1 1h2.246l-2.742 5zm4-7h-1v-6.5a.5.5 0 0 1 1 0zm18 2v1a1 1 0 0 0 1 1h1v2c0 .551-.449 1-1 1h-2v-5zm-3 7H19.689l15.903-29H36z" fill="#ffffff" data-original="#000000" opacity="1"></path></g></svg>